<svg width="70" height="70" viewBox="0 0 70 70" fill="none" xmlns="http://www.w3.org/2000/svg">
<rect x="1.5" y="1.5" width="67" height="67" rx="33.5" stroke="white" stroke-width="3"/>
<path d="M35.0003 4.27972C43.5336 4.27972 50.7869 7.28772 56.7603 13.3037C62.7336 19.3197 65.7203 26.5731 65.7203 35.0637C65.7203 43.5544 62.7336 50.7864 56.7603 56.7597C50.7869 62.7331 43.5549 65.7197 35.0643 65.7197C26.5736 65.7197 19.3203 62.7331 13.3043 56.7597C7.28827 50.7864 4.28027 43.5544 4.28027 35.0637C4.28027 26.5731 7.28827 19.3197 13.3043 13.3037C19.3203 7.28772 26.5523 4.27972 35.0003 4.27972ZM61.2403 34.9997C61.2403 29.3677 59.5763 24.2691 56.2483 19.7037C52.9203 15.1384 48.6109 11.9597 43.3203 10.1677C42.5523 11.1917 42.2109 11.8744 42.2963 12.2157C42.4669 13.8371 42.8509 14.9251 43.4483 15.4797C44.0456 16.0344 44.6856 16.1837 45.3683 15.9277L47.4163 15.1597L48.6963 15.0317C49.6349 16.0557 49.6349 17.0584 48.6963 18.0397C47.7576 19.0211 46.7976 20.2157 45.8163 21.6237C44.8349 23.0317 44.8136 24.6744 45.7523 26.5517C47.2029 29.2824 49.2509 30.6477 51.8963 30.6477C53.0909 30.7331 54.0083 31.5011 54.6483 32.9517C55.2883 34.4024 55.6509 35.8104 55.7363 37.1757C56.1629 40.5891 55.8643 43.5757 54.8403 46.1357C53.9016 48.0131 54.2003 49.6344 55.7363 50.9997C59.4056 46.2211 61.2403 40.8877 61.2403 34.9997ZM31.4163 9.14372C26.6376 9.74106 22.3923 11.5331 18.6803 14.5197C14.9683 17.5064 12.2589 21.2184 10.5523 25.6557C10.8083 25.6557 11.2776 25.6984 11.9603 25.7837L13.7523 25.9757C14.2643 26.0184 14.8189 26.1037 15.4163 26.2317C16.0136 26.3597 16.5256 26.5304 16.9523 26.7437C17.3789 26.9571 17.6349 27.2344 17.7203 27.5757C17.8909 28.0877 17.5923 29.0477 16.8243 30.4557C16.0563 31.8637 15.6723 33.1864 15.6723 34.4237C15.6723 35.6611 16.4829 36.8344 18.1043 37.9437C19.7256 39.0531 20.5363 40.0344 20.5363 40.8877C20.5363 42.0824 20.7069 43.5331 21.0483 45.2397C21.3896 46.9464 21.5603 47.8851 21.5603 48.0557C21.5603 48.5677 22.3283 49.7197 23.8643 51.5117C25.4003 53.3037 26.5096 54.1997 27.1923 54.1997C27.6189 54.1997 27.8536 53.7304 27.8963 52.7917C27.9389 51.8531 27.8963 50.7011 27.7683 49.3357C27.6403 47.9704 27.5763 47.1171 27.5763 46.7757C27.5763 45.4104 27.8536 43.8317 28.4083 42.0397C28.9629 40.2477 30.2429 38.7544 32.2483 37.5597C34.2536 36.3651 35.4269 35.3837 35.7683 34.6157C36.4509 33.1651 36.6429 31.8637 36.3443 30.7117C36.0456 29.5597 35.6829 28.6424 35.2563 27.9597C34.8296 27.2771 34.1043 26.6797 33.0803 26.1677C32.0563 25.6557 31.1816 25.2931 30.4563 25.0797C29.7309 24.8664 28.9416 24.6744 28.0883 24.5037C27.2349 24.3331 26.7656 24.2477 26.6803 24.2477C25.9976 23.9917 25.1016 23.8424 23.9923 23.7997C22.8829 23.7571 22.1149 23.8211 21.6883 23.9917C21.2616 24.1624 20.6856 23.9277 19.9603 23.2877C19.2349 22.6477 18.8723 22.0291 18.8723 21.4317C18.8723 21.0051 19.1923 20.4291 19.8323 19.7037C20.4723 18.9784 21.2189 18.1891 22.0723 17.3357C22.9256 16.4824 23.5229 15.8424 23.8643 15.4157C24.2056 14.8184 24.5683 14.3704 24.9523 14.0717C25.3363 13.7731 25.8056 13.4317 26.3603 13.0477C26.9149 12.6637 27.4909 12.2157 28.0883 11.7037C28.2589 11.5331 28.7923 11.1704 29.6883 10.6157C30.5843 10.0611 31.1603 9.57039 31.4163 9.14372ZM26.8083 59.9597C29.6243 60.8131 32.3549 61.2397 35.0003 61.2397C40.4616 61.2397 45.2829 59.7891 49.4643 56.8877C48.3549 55.0104 45.8376 54.2851 41.9123 54.7117C40.8883 54.7971 39.5016 55.1597 37.7523 55.7997L34.7443 56.8877C31.5869 57.5704 29.9656 57.9117 29.8803 57.9117C29.3683 57.9971 28.8136 58.2957 28.2163 58.8077C27.6189 59.3197 27.1496 59.7037 26.8083 59.9597Z" fill="white"/>
</svg>
