<svg width="71" height="70" viewBox="0 0 71 70" fill="none" xmlns="http://www.w3.org/2000/svg">
<rect x="1.68945" y="1.5" width="67" height="67" rx="33.5" stroke="white" stroke-width="3"/>
<g clip-path="url(#clip0_767_269)">
<path d="M67.1895 63.1602H52.8535V53.5602C52.8535 51.2562 52.2135 49.5282 50.9335 48.3762C49.6535 47.2242 46.3681 45.3255 41.0775 42.6802C42.7841 41.4002 43.6375 39.6082 43.6375 37.3042C43.6375 36.6215 43.3601 35.9175 42.8055 35.1922C42.2508 34.4668 41.8455 33.3788 41.5895 31.9282C41.5041 31.5868 41.2055 31.2455 40.6935 30.9042C40.1815 30.5628 39.8828 29.6668 39.7975 28.2162C39.7975 27.1922 40.0535 26.5522 40.5655 26.2962C40.3095 24.8455 40.1388 23.5655 40.0535 22.4562C39.8828 20.8348 40.3735 19.1708 41.5255 17.4642C42.6775 15.7575 44.7041 14.9042 47.6055 14.9042C50.5068 14.9042 52.5548 15.7575 53.7495 17.4642C54.9441 19.1708 55.4561 20.8348 55.2855 22.4562L54.7735 26.2962C55.2855 26.5522 55.5415 27.1922 55.5415 28.2162C55.4561 29.6668 55.1575 30.5628 54.6455 30.9042C54.1335 31.2455 53.8348 31.5868 53.7495 31.9282C53.4935 33.3788 53.0881 34.4668 52.5335 35.1922C51.9788 35.9175 51.7015 36.6215 51.7015 37.3042C51.7015 39.0962 52.1495 40.5042 53.0455 41.5282C53.9415 42.5522 55.5841 43.5762 57.9735 44.6002C62.7521 46.5628 65.5255 48.2695 66.2935 49.7202C66.5495 50.0615 66.7415 51.3628 66.8695 53.6242C66.9975 55.8855 67.1041 58.0402 67.1895 60.0882V63.1602ZM35.9575 46.3922C43.7228 49.7202 47.6055 52.3655 47.6055 54.3282V63.1602H3.18945V51.3842C3.18945 49.5068 4.98145 47.8428 8.56545 46.3922C11.8081 45.0268 14.0268 43.6615 15.2215 42.2962C16.4161 40.9308 17.0135 39.0535 17.0135 36.6642C17.0135 35.8108 16.6081 34.8722 15.7975 33.8482C14.9868 32.8242 14.4535 31.3735 14.1975 29.4962C14.1121 29.0695 13.7281 28.6002 13.0455 28.0882C12.3628 27.5762 11.9361 26.3815 11.7655 24.5042C11.7655 23.9068 11.8295 23.4162 11.9575 23.0322C12.0855 22.6482 12.2348 22.3708 12.4055 22.2002L12.6615 22.0722C12.4055 20.1095 12.1921 18.3602 12.0215 16.8242C11.8508 14.6908 12.5548 12.4935 14.1335 10.2322C15.7121 7.97082 18.4215 6.84015 22.2615 6.84015C26.1015 6.84015 28.8108 7.97082 30.3895 10.2322C31.9681 12.4935 32.6721 14.6908 32.5015 16.8242L31.8615 22.0722C32.4588 22.4135 32.7575 23.2242 32.7575 24.5042C32.5868 26.3815 32.1601 27.5762 31.4775 28.0882C30.7948 28.6002 30.4108 29.0695 30.3255 29.4962C30.0695 31.3735 29.5361 32.8242 28.7255 33.8482C27.9148 34.8722 27.5095 35.8108 27.5095 36.6642C27.5095 39.0535 28.1068 40.9308 29.3015 42.2962C30.4961 43.6615 32.7148 45.0268 35.9575 46.3922Z" fill="white"/>
</g>
<defs>
<clipPath id="clip0_767_269">
<rect width="64" height="64" fill="white" transform="matrix(1 0 0 -1 3.18945 67)"/>
</clipPath>
</defs>
</svg>
