<svg width="101" height="100" viewBox="0 0 101 100" fill="none" xmlns="http://www.w3.org/2000/svg">
<rect x="1.7998" y="1.5" width="97" height="97" rx="48.5" stroke="#00C140" stroke-width="3"/>
<path d="M66.2796 55.6396L82.3536 40.1296L60.2636 36.8396L50.2996 16.8176L40.4296 36.8396L18.2456 40.1296L34.3196 55.6396L30.4656 77.7296L50.2996 67.2956L70.1336 77.7296L66.2796 55.6396ZM94.0096 36.9336C94.0096 37.6856 93.5396 38.5316 92.5996 39.4716L73.5176 57.9896L78.0296 84.2156C78.0923 84.4663 78.1236 84.8423 78.1236 85.3436C78.1236 87.0983 77.4029 87.9756 75.9616 87.9756C75.3349 87.9756 74.6456 87.7563 73.8936 87.3176L50.2996 74.9096L26.7996 87.3176C25.9849 87.7563 25.2486 87.9756 24.5906 87.9756C23.9326 87.9756 23.4156 87.6936 23.0396 87.1296C22.6636 86.5656 22.4756 85.9703 22.4756 85.3436C22.4756 85.0929 22.5069 84.7169 22.5696 84.2156L27.0816 57.9896L7.99959 39.4716C7.12226 38.5316 6.68359 37.6856 6.68359 36.9336C6.68359 35.6176 7.65493 34.8029 9.59759 34.4896L35.9176 30.7296L47.7616 6.85359C48.4509 5.41225 49.2969 4.69159 50.2996 4.69159C51.3023 4.69159 52.1796 5.41225 52.9316 6.85359L64.6816 30.7296L91.0016 34.4896C93.0069 34.8029 94.0096 35.6176 94.0096 36.9336Z" fill="#00C140"/>
</svg>
