<svg width="71" height="70" viewBox="0 0 71 70" fill="none" xmlns="http://www.w3.org/2000/svg">
<rect x="2.30957" y="1.5" width="67" height="67" rx="33.5" stroke="white" stroke-width="3"/>
<g clip-path="url(#clip0_767_257)">
<path d="M23.5891 35.0003C20.0036 35.1198 17.0556 36.5341 14.745 39.2431H10.2632C8.47049 39.2431 6.93672 38.8048 5.6619 37.9284C4.38708 37.052 3.76959 35.7373 3.80943 33.9844C3.80943 26.1363 5.18384 22.2122 7.93268 22.2122C8.09203 22.2122 8.59001 22.4314 9.42661 22.8696C10.2632 23.3078 11.3388 23.7858 12.6535 24.3037C13.9682 24.8216 15.2828 25.0607 16.5975 25.0208C18.1113 25.0208 19.6053 24.7619 21.0793 24.244C20.9598 25.0806 20.9 25.8176 20.9 26.455C20.9 29.5624 21.7964 32.4108 23.5891 35.0003ZM59.3239 56.2739C59.3239 58.9032 58.5072 60.9947 56.8739 62.5484C55.2405 64.1021 53.0892 64.8789 50.4201 64.8789H21.2585C18.5495 64.8789 16.3983 64.1021 14.8048 62.5484C13.2112 60.9947 12.3946 58.9032 12.3547 56.2739C12.3547 55.0787 12.3946 53.9234 12.4742 52.8079C12.5539 51.6925 12.7133 50.4774 12.9523 49.1628C13.1913 47.8481 13.4702 46.633 13.7889 45.5176C14.1076 44.4021 14.5856 43.3265 15.2231 42.2907C15.8605 41.2549 16.5576 40.3585 17.3146 39.6016C18.0715 38.8447 19.0276 38.2471 20.1829 37.8089C21.3382 37.3707 22.5732 37.1515 23.8879 37.1515C24.1269 37.1515 24.6049 37.3906 25.322 37.8686C26.0391 38.3467 26.8558 38.8646 27.7721 39.4223C28.6884 39.9801 29.8636 40.5179 31.2978 41.0358C32.7319 41.5537 34.2458 41.7927 35.8393 41.7529C37.4328 41.713 38.9268 41.474 40.3211 41.0358C41.7154 40.5975 42.9106 40.0597 43.9065 39.4223L46.3566 37.8686C46.994 37.4703 47.4521 37.2312 47.731 37.1515C49.1253 37.1515 50.3802 37.3707 51.4957 37.8089C52.6112 38.2471 53.5474 38.8447 54.3043 39.6016C55.0612 40.3585 55.7584 41.2549 56.3958 42.2907C57.0332 43.3265 57.5113 44.4021 57.83 45.5176C58.1487 46.633 58.4475 47.8481 58.7263 49.1628C59.0052 50.4774 59.1645 51.6925 59.2044 52.8079L59.3239 56.2739ZM25.1428 13.667C25.1428 16.0174 24.3062 18.0292 22.633 19.7024C20.9598 21.3756 18.9479 22.2122 16.5975 22.2122C14.247 22.2122 12.2352 21.3756 10.562 19.7024C8.88879 18.0292 8.05219 16.0174 8.05219 13.667C8.05219 11.3165 8.88879 9.30468 10.562 7.63147C12.2352 5.95827 14.247 5.12167 16.5975 5.12167C18.9479 5.12167 20.9598 5.95827 22.633 7.63147C24.3062 9.30468 25.1428 11.3165 25.1428 13.667ZM48.6274 26.455C48.6274 30.0006 47.3725 33.0283 44.8626 35.5381C42.3528 38.0479 39.3451 39.2829 35.8393 39.2431C32.3335 39.2032 29.3058 37.9682 26.7562 35.5381C24.2066 33.108 22.9517 30.0803 22.9915 26.455C23.0313 22.8297 24.2862 19.8219 26.7562 17.4317C29.2262 15.0414 32.2539 13.7865 35.8393 13.667C39.4247 13.5474 42.4325 14.8023 44.8626 17.4317C47.2928 20.061 48.5477 23.0688 48.6274 26.455ZM67.8094 33.9844C67.8094 35.6975 67.1919 37.0121 65.957 37.9284C64.722 38.8447 63.1882 39.2829 61.3556 39.2431H56.8739C54.6031 36.5341 51.675 35.1198 48.0895 35.0003C49.8823 32.4108 50.7786 29.5624 50.7786 26.455C50.7786 25.8176 50.7189 25.0806 50.5993 24.244C52.0734 24.7619 53.5474 25.0208 55.0214 25.0208C56.336 25.0208 57.6706 24.7818 59.0251 24.3037C60.3796 23.8257 61.4552 23.3476 62.252 22.8696C63.0488 22.3915 63.5268 22.1724 63.6862 22.2122C66.435 22.2122 67.8094 26.1363 67.8094 33.9844ZM63.5667 13.667C63.5667 16.0174 62.7301 18.0292 61.0569 19.7024C59.3837 21.3756 57.3718 22.2122 55.0214 22.2122C52.6709 22.2122 50.6591 21.3756 48.9859 19.7024C47.3127 18.0292 46.4761 16.0174 46.4761 13.667C46.4761 11.3165 47.3127 9.30468 48.9859 7.63147C50.6591 5.95827 52.6709 5.12167 55.0214 5.12167C57.3718 5.12167 59.3837 5.95827 61.0569 7.63147C62.7301 9.30468 63.5667 11.3165 63.5667 13.667Z" fill="white"/>
</g>
<defs>
<clipPath id="clip0_767_257">
<rect width="64" height="64" fill="white" transform="matrix(1 0 0 -1 3.80957 67)"/>
</clipPath>
</defs>
</svg>
