<svg width="101" height="100" viewBox="0 0 101 100" fill="none" xmlns="http://www.w3.org/2000/svg">
<rect x="2.4502" y="1.5" width="97" height="97" rx="48.5" stroke="#00C140" stroke-width="3"/>
<g clip-path="url(#clip0_767_214)">
<path d="M97.9502 91.3604H76.8942V77.2604C76.8942 73.8764 75.9542 71.3384 74.0742 69.6464C72.1942 67.9544 67.3689 65.1657 59.5982 61.2804C62.1049 59.4004 63.3582 56.7684 63.3582 53.3844C63.3582 52.3817 62.9509 51.3477 62.1362 50.2824C61.3215 49.217 60.7262 47.619 60.3502 45.4884C60.2249 44.987 59.7862 44.4857 59.0342 43.9844C58.2822 43.483 57.8435 42.167 57.7182 40.0364C57.7182 38.5324 58.0942 37.5924 58.8462 37.2164C58.4702 35.0857 58.2195 33.2057 58.0942 31.5764C57.8435 29.195 58.5642 26.751 60.2562 24.2444C61.9482 21.7377 64.9249 20.4844 69.1862 20.4844C73.4475 20.4844 76.4555 21.7377 78.2102 24.2444C79.9649 26.751 80.7169 29.195 80.4662 31.5764L79.7142 37.2164C80.4662 37.5924 80.8422 38.5324 80.8422 40.0364C80.7169 42.167 80.2782 43.483 79.5262 43.9844C78.7742 44.4857 78.3355 44.987 78.2102 45.4884C77.8342 47.619 77.2389 49.217 76.4242 50.2824C75.6095 51.3477 75.2022 52.3817 75.2022 53.3844C75.2022 56.0164 75.8602 58.0844 77.1762 59.5884C78.4922 61.0924 80.9049 62.5964 84.4142 64.1004C91.4329 66.983 95.5062 69.4897 96.6342 71.6204C97.0102 72.1217 97.2922 74.033 97.4802 77.3544C97.6682 80.6757 97.8249 83.8404 97.9502 86.8484V91.3604ZM52.0782 66.7324C63.4835 71.6204 69.1862 75.5057 69.1862 78.3884V91.3604H3.9502V74.0644C3.9502 71.307 6.5822 68.863 11.8462 66.7324C16.6089 64.727 19.8675 62.7217 21.6222 60.7164C23.3769 58.711 24.2542 55.9537 24.2542 52.4444C24.2542 51.191 23.6589 49.8124 22.4682 48.3084C21.2775 46.8044 20.4942 44.6737 20.1182 41.9164C19.9929 41.2897 19.4289 40.6004 18.4262 39.8484C17.4235 39.0964 16.7969 37.3417 16.5462 34.5844C16.5462 33.707 16.6402 32.9864 16.8282 32.4224C17.0162 31.8584 17.2355 31.451 17.4862 31.2004L17.8622 31.0124C17.4862 28.1297 17.1729 25.5604 16.9222 23.3044C16.6715 20.171 17.7055 16.9437 20.0242 13.6224C22.3429 10.301 26.3222 8.64036 31.9622 8.64036C37.6022 8.64036 41.5815 10.301 43.9002 13.6224C46.2189 16.9437 47.2529 20.171 47.0022 23.3044L46.0622 31.0124C46.9395 31.5137 47.3782 32.7044 47.3782 34.5844C47.1275 37.3417 46.5009 39.0964 45.4982 39.8484C44.4955 40.6004 43.9315 41.2897 43.8062 41.9164C43.4302 44.6737 42.6469 46.8044 41.4562 48.3084C40.2655 49.8124 39.6702 51.191 39.6702 52.4444C39.6702 55.9537 40.5475 58.711 42.3022 60.7164C44.0569 62.7217 47.3155 64.727 52.0782 66.7324Z" fill="#00C140"/>
</g>
<defs>
<clipPath id="clip0_767_214">
<rect width="94" height="94" fill="white" transform="matrix(1 0 0 -1 3.9502 97)"/>
</clipPath>
</defs>
</svg>
