<svg width="101" height="100" viewBox="0 0 101 100" fill="none" xmlns="http://www.w3.org/2000/svg">
<rect x="2.13965" y="1.5" width="97" height="97" rx="48.5" stroke="#00C140" stroke-width="3"/>
<path d="M76.02 31.7645L60.698 47.0865V90.3265C60.698 91.8931 60.134 93.2718 59.006 94.4625C57.878 95.6531 56.4994 96.2171 54.87 96.1545C53.2407 96.0918 51.8307 95.5278 50.64 94.4625C49.4494 93.3971 48.8854 92.0185 48.948 90.3265V70.1165H45.564V90.3265C45.564 91.8931 45 93.2718 43.872 94.4625C42.744 95.6531 41.3654 96.2171 39.736 96.1545C38.1067 96.0918 36.728 95.5278 35.6 94.4625C34.472 93.3971 33.8767 92.0185 33.814 90.3265V47.0865L18.492 31.7645C17.552 30.7618 17.082 29.5712 17.082 28.1925C17.082 26.8138 17.552 25.6232 18.492 24.6205C19.432 23.6178 20.6227 23.1165 22.064 23.1165C23.5054 23.1165 24.696 23.6178 25.636 24.6205L37.574 36.5585H56.938L68.876 24.6205C69.8787 23.6178 71.0694 23.1165 72.448 23.1165C73.8267 23.1165 75.0174 23.6178 76.02 24.6205C77.0227 25.6232 77.524 26.8138 77.524 28.1925C77.524 29.5712 77.0227 30.7618 76.02 31.7645ZM59.006 23.1165C59.006 26.3752 57.878 29.1638 55.622 31.4825C53.366 33.8012 50.5774 34.9291 47.256 34.8665C43.9347 34.8038 41.1774 33.6758 38.984 31.4825C36.7907 29.2891 35.6314 26.5005 35.506 23.1165C35.3807 19.7325 36.54 16.9752 38.984 14.8445C41.428 12.7138 44.1854 11.5545 47.256 11.3665C50.3267 11.1785 53.1154 12.3378 55.622 14.8445C58.1287 17.3512 59.2567 20.1085 59.006 23.1165Z" fill="#00C140"/>
</svg>
