<svg width="65" height="66" viewBox="0 0 65 66" fill="none" xmlns="http://www.w3.org/2000/svg">
<path d="M32.175 3.09957C40.4083 3.0129 47.4716 5.82957 53.365 11.5496C59.2583 17.2696 62.27 24.2462 62.4 32.4796C62.53 40.7129 59.7133 47.7979 53.95 53.7346C48.1866 59.6712 41.1883 62.7046 32.955 62.8346C24.7216 62.9646 17.6366 60.1479 11.7 54.3846C5.76331 48.6212 2.72997 41.6229 2.59997 33.3896C2.46997 25.1562 5.30831 18.0712 11.115 12.1346C16.9216 6.1979 23.9416 3.18624 32.175 3.09957ZM35.555 12.9796C33.735 12.9796 32.3266 13.4996 31.33 14.5396C30.3333 15.5796 29.835 16.6629 29.835 17.7896C29.7483 19.0029 30.0733 19.9562 30.81 20.6496C31.5466 21.3429 32.6083 21.6896 33.995 21.6896C35.6416 21.6896 36.9633 21.2129 37.96 20.2596C38.9566 19.3062 39.455 18.1362 39.455 16.7496C39.455 14.2362 38.155 12.9796 35.555 12.9796ZM27.755 51.5896C29.055 51.5896 30.875 51.0262 33.215 49.8996C35.555 48.7729 37.8516 47.0829 40.105 44.8296L38.935 43.2696C36.855 44.8296 35.295 45.6096 34.255 45.6096C33.6483 45.6096 33.5616 44.7862 33.995 43.1396L36.725 32.7396C37.8516 28.5796 37.375 26.4996 35.295 26.4996C33.995 26.4996 32.0666 27.1279 29.51 28.3846C26.9533 29.6412 24.4616 31.2662 22.035 33.2596L23.075 34.9496C25.3283 33.4762 26.9316 32.7396 27.885 32.7396C28.405 32.7396 28.405 33.4762 27.885 34.9496L25.545 44.8296C24.4183 49.3362 25.155 51.5896 27.755 51.5896Z" fill="white"/>
</svg>
