<svg width="101" height="100" viewBox="0 0 101 100" fill="none" xmlns="http://www.w3.org/2000/svg">
<rect x="2.48047" y="1.5" width="97" height="97" rx="48.5" stroke="#00C140" stroke-width="3"/>
<g clip-path="url(#clip0_767_250)">
<path d="M87.8824 80.174C87.8824 81.114 87.5691 81.9287 86.9424 82.618C86.3157 83.3073 85.5324 83.6207 84.5924 83.558H60.3404C60.3404 84.1847 60.4344 85.72 60.6224 88.164C60.8104 90.608 60.9044 92.5193 60.9044 93.898C60.9044 94.7753 60.5911 95.496 59.9644 96.06C59.3377 96.624 58.5857 96.9373 57.7084 97H40.8824C40.0051 97 39.2531 96.6867 38.6264 96.06C37.9997 95.4333 37.6864 94.7127 37.6864 93.898C37.6864 92.5193 37.7804 90.608 37.9684 88.164C38.1564 85.72 38.2504 84.1847 38.2504 83.558H14.0924C13.1524 83.558 12.3691 83.2447 11.7424 82.618C11.1157 81.9913 10.7711 81.1767 10.7084 80.174C10.6457 79.1713 10.9904 78.388 11.7424 77.824L32.7984 56.674H20.7664C19.8891 56.674 19.1057 56.3607 18.4164 55.734C17.7271 55.1073 17.3824 54.324 17.3824 53.384C17.3824 52.444 17.7271 51.6607 18.4164 51.034L39.4724 29.884H29.1324C28.2551 29.884 27.4717 29.5393 26.7824 28.85C26.0931 28.1607 25.7797 27.3773 25.8424 26.5C25.9051 25.6227 26.2184 24.8393 26.7824 24.15L46.8984 4.034C47.5877 3.34467 48.4024 3 49.3424 3C50.2824 3 51.0657 3.34467 51.6924 4.034L71.8084 24.15C72.4977 24.7767 72.8424 25.56 72.8424 26.5C72.8424 27.44 72.4977 28.2233 71.8084 28.85C71.1191 29.4767 70.3357 29.8213 69.4584 29.884H59.1184L80.1744 51.034C80.8637 51.6607 81.2084 52.444 81.2084 53.384C81.2084 54.324 80.8637 55.1073 80.1744 55.734C79.4851 56.3607 78.7017 56.7053 77.8244 56.768H65.7924L86.9424 77.824C87.5691 78.5133 87.8824 79.2967 87.8824 80.174Z" fill="#00C140"/>
</g>
<defs>
<clipPath id="clip0_767_250">
<rect width="94" height="94" fill="white" transform="matrix(1 0 0 -1 3.98047 97)"/>
</clipPath>
</defs>
</svg>
