<svg width="61" height="60" viewBox="0 0 61 60" fill="none" xmlns="http://www.w3.org/2000/svg">
    <g clip-path="url(#clip0_767_191)">
        <path d="M56.778 1.77129C57.5018 2.30462 57.7875 2.99034 57.6352 3.82843L49.5209 52.7999C49.4066 53.4094 49.0637 53.8856 48.4923 54.2284C48.1875 54.4189 47.8447 54.5141 47.4637 54.5141C47.2352 54.5141 46.9875 54.457 46.7209 54.3427L29.9209 47.4856L20.4352 57.8856C20.0542 58.3427 19.5399 58.5713 18.8923 58.5713C18.6256 58.5713 18.3971 58.5332 18.2066 58.457C17.7875 58.3046 17.4637 58.057 17.2352 57.7141C17.0066 57.3713 16.8923 56.9713 16.8923 56.5141V42.1141L1.80659 35.9427C1.04469 35.6761 0.625643 35.1141 0.549452 34.257C0.473262 33.3999 0.816119 32.7618 1.57802 32.3427L54.6066 1.71415C55.3685 1.257 56.0923 1.27605 56.778 1.77129ZM45.9209 49.5999L52.9495 7.37129L7.23517 33.7713L17.9209 38.1141L45.4637 17.7713L30.2066 43.1427L45.9209 49.5999Z"
              fill="#00266D"/>
    </g>
    <defs>
        <clipPath id="clip0_767_191">
            <rect width="60" height="60" fill="white" transform="matrix(1 0 0 -1 0.549805 60)"/>
        </clipPath>
    </defs>
</svg>
