<svg width="100" height="25" viewBox="0 0 100 25" fill="none" xmlns="http://www.w3.org/2000/svg">
<g clip-path="url(#clip0_1_1361)">
<path d="M31.5544 5.12151H28.9287V19.2683H31.5544V5.12151Z" fill="#FF2828"/>
<path d="M39.6383 8.35203C38.0608 8.35203 36.7454 8.87617 35.9189 9.86902V8.47299H33.5149V19.2683H36.0398V13.8102C36.0398 11.6481 37.2544 10.5544 39.0536 10.5544C40.6714 10.5544 41.6189 11.4818 41.6189 13.407V19.2683H44.1438V13.0844C44.1489 9.8287 42.2287 8.35203 39.6383 8.35203Z" fill="#FF2828"/>
<path d="M50.5142 17.3279C49.5415 17.3279 49.0174 16.7635 49.0174 15.7102V10.5746H51.9102V8.55362H49.0174V5.96316H46.4924V8.55362H44.7134V10.5746H46.4924V15.7706C46.4924 18.1545 47.8481 19.4094 50.2118 19.4094C51.124 19.4094 52.0312 19.1675 52.6359 18.6836L51.9304 16.8844C51.5473 17.1868 51.0434 17.3279 50.5142 17.3279Z" fill="#FF2828"/>
<path d="M55.9118 10.0505V8.47299H53.5078V19.2683H56.0328V14.0319C56.0328 11.8295 57.2474 10.6955 59.1675 10.6955C59.349 10.6955 59.5304 10.7157 59.7522 10.756V8.35203C57.9529 8.35203 56.6426 8.91649 55.9118 10.0505Z" fill="#FF2828"/>
<path d="M65.4773 8.35203C62.2619 8.35203 59.8982 10.6552 59.8982 13.8706C59.8982 17.086 62.2417 19.4094 65.8603 19.4094C67.72 19.4094 69.237 18.8046 70.2046 17.6505L68.8489 16.0932C68.0829 16.8794 67.1303 17.2675 65.9157 17.2675C64.0359 17.2675 62.7205 16.2545 62.4181 14.682H70.89C70.9102 14.4401 70.9304 14.1377 70.9304 13.9361C70.9304 10.5544 68.6272 8.35203 65.4773 8.35203ZM62.403 13.0038C62.6449 11.4263 63.8393 10.378 65.4773 10.378C67.1354 10.378 68.3298 11.4515 68.5314 13.0038H62.403Z" fill="#FF2828"/>
<path d="M78.1321 8.35203C76.6555 8.35203 75.4006 8.85601 74.5539 9.88917V8.47299H72.1499V23.1892H74.6748V17.9529C75.5417 18.9457 76.7563 19.4094 78.1321 19.4094C81.2871 19.4094 83.6104 17.2271 83.6104 13.8706C83.6104 10.5343 81.282 8.35203 78.1321 8.35203ZM77.8449 17.2473C76.0255 17.2473 74.6295 15.9319 74.6295 13.8706C74.6295 11.8093 76.0255 10.4939 77.8449 10.4939C79.6643 10.4939 81.0401 11.8093 81.0401 13.8706C81.0401 15.9319 79.6643 17.2473 77.8449 17.2473Z" fill="#FF2828"/>
<path d="M86.0751 3.78596C85.1478 3.78596 84.4573 4.45122 84.4573 5.30295C84.4573 6.14963 85.1427 6.81993 86.0751 6.81993C87.0226 6.81993 87.6929 6.13451 87.6929 5.24247C87.6929 4.4109 87.0075 3.78596 86.0751 3.78596Z" fill="#FF2828"/>
<path d="M87.3248 8.47299H84.7998V19.2683H87.3248V8.47299Z" fill="#FF2828"/>
<path d="M97.4752 4.26978V9.80854C96.6285 8.81569 95.3937 8.35203 93.9977 8.35203C90.8629 8.35203 88.5396 10.5141 88.5396 13.8706C88.5396 17.2271 90.8629 19.4094 93.9977 19.4094C95.4743 19.4094 96.7242 18.9054 97.576 17.8722V19.2683H100V4.26978H97.4752ZM94.3051 17.2473C92.4857 17.2473 91.0897 15.9319 91.0897 13.8706C91.0897 11.8093 92.4857 10.4939 94.3051 10.4939C96.1245 10.4939 97.5205 11.8093 97.5205 13.8706C97.5155 15.9319 96.1194 17.2473 94.3051 17.2473Z" fill="#FF2828"/>
<path d="M20.6733 4.67297C20.8145 5.57509 20.9153 6.45706 20.9959 7.23823C21.0009 7.26847 21.011 7.29871 21.0261 7.32895C21.8375 8.83585 22.271 10.5292 22.271 12.2881C22.271 13.0995 22.1803 13.9009 21.9988 14.672C21.7619 14.2587 21.4596 13.8908 21.0967 13.5834V12.7568C21.0967 12.4948 20.885 12.2831 20.6229 12.2831H20.2298C20.1643 12.2831 20.1139 12.2327 20.1139 12.1672V11.3054H20.3911C20.5222 11.3054 20.628 11.1995 20.628 11.0685V10.242C20.628 10.1109 20.5222 10.0051 20.3911 10.0051H20.1089C20.0534 8.22604 19.6553 3.47349 18.5566 0.620959C18.5264 0.540322 18.4155 0.540322 18.3853 0.620959C17.2866 3.47349 16.8884 8.22604 16.838 10.0101H16.5558C16.4248 10.0101 16.3189 10.116 16.3189 10.247V11.0735C16.3189 11.2046 16.4248 11.3104 16.5558 11.3104H16.833V12.1722C16.833 12.2377 16.7826 12.2881 16.7171 12.2881H16.324C16.0619 12.2881 15.8502 12.4998 15.8502 12.7619V13.5884C14.9733 14.3343 14.4189 15.438 14.4189 16.6778V17.973H13.9906C13.8595 17.973 13.7537 18.0789 13.7537 18.2099V19.1524C13.7537 19.2179 13.7033 19.2683 13.6378 19.2683H12.5643C12.4988 19.2683 12.4484 19.2179 12.4484 19.1524V14.1478C13.1741 13.8908 13.7083 13.2205 13.7587 12.4141C13.7638 12.3486 13.7083 12.2932 13.6428 12.2932H12.5693C12.5038 12.2932 12.4534 12.2428 12.4534 12.1773C12.4534 10.3881 12.4383 6.80481 11.8839 5.11143C11.8587 5.02576 11.7378 5.02576 11.7075 5.11143C11.1531 6.80481 11.138 10.3881 11.138 12.1773C11.138 12.2428 11.0876 12.2932 11.0221 12.2932H9.94862C9.8831 12.2932 9.82767 12.3486 9.83271 12.4141C9.88311 13.2205 10.4123 13.8908 11.1431 14.1478V19.1524C11.1431 19.2179 11.0927 19.2683 11.0271 19.2683H9.95366C9.88814 19.2683 9.83775 19.2179 9.83775 19.1524V18.2099C9.83775 18.0789 9.73191 17.973 9.60087 17.973H9.17249V16.7736C9.17249 16.708 9.16241 16.6476 9.13721 16.5871C8.38124 14.8232 6.62739 13.5834 4.58626 13.5834C3.45734 13.5834 2.4141 13.9613 1.58253 14.6014C1.39102 13.7497 1.30534 12.8727 1.33054 11.9757C1.40614 9.40031 2.43426 6.9308 4.21332 5.06607C6.24436 2.93423 9.00618 1.77508 11.9444 1.81035C13.5168 1.83051 15.059 2.2085 16.45 2.89895C16.5205 2.93423 16.6062 2.89391 16.6213 2.81832C16.6969 2.45041 16.7826 2.09258 16.8733 1.7398C16.8884 1.6894 16.8632 1.63396 16.8128 1.6138C15.2807 0.903189 13.5874 0.500004 11.7982 0.500004C5.30191 0.494964 -0.0150873 5.82205 3.21658e-05 12.3234C0.0201914 18.9457 5.49847 24.2829 12.1762 24.0712C18.4256 23.8696 23.4704 18.7492 23.5763 12.4948C23.6267 9.49103 22.5582 6.74433 20.754 4.63265C20.7237 4.59737 20.6633 4.62761 20.6733 4.67297Z" fill="#FF2828"/>
</g>
<defs>
<clipPath id="clip0_1_1361">
<rect width="100" height="24" fill="white" transform="translate(0 0.5)"/>
</clipPath>
</defs>
</svg>
