<svg width="7" height="16" viewBox="0 0 7 16" fill="none" xmlns="http://www.w3.org/2000/svg">
    <g clip-path="url(#clip0_720_18)">
        <path d="M5.96847 8.36602C6.028 8.42554 6.05776 8.494 6.05776 8.57138C6.05776 8.64876 6.028 8.71721 5.96847 8.77673L1.80776 12.9374C1.74823 12.997 1.67978 13.0267 1.6024 13.0267C1.52502 13.0267 1.45657 12.997 1.39704 12.9374L0.950614 12.491C0.89109 12.4315 0.861328 12.363 0.861328 12.2857C0.861328 12.2083 0.89109 12.1398 0.950614 12.0803L4.45954 8.57138L0.950614 5.06245C0.89109 5.00292 0.861328 4.93447 0.861328 4.85709C0.861328 4.77971 0.89109 4.71126 0.950614 4.65173L1.39704 4.2053C1.45657 4.14578 1.52502 4.11602 1.6024 4.11602C1.67978 4.11602 1.74823 4.14578 1.80776 4.2053L5.96847 8.36602Z"
              fill="#818181"/>
    </g>
    <defs>
        <clipPath id="clip0_720_18">
            <rect width="5.72" height="16" fill="white" transform="matrix(1 0 0 -1 0.859375 16)"/>
        </clipPath>
    </defs>
</svg>
