<svg width="166" height="81" viewBox="0 0 166 81" fill="none" xmlns="http://www.w3.org/2000/svg">
    <g clip-path="url(#clip0_1_1029)" filter="url(#filter0_b_1_1029)">
        <g clip-path="url(#clip1_1_1029)">
            <path d="M52.1741 46.0516H47.8325V69.4428H52.1741V46.0516Z" fill="#FF2828"/>
            <path d="M65.5403 51.3931C62.932 51.3931 60.7571 52.2598 59.3905 53.9014V51.5931H55.4155V69.4428H59.5904V60.4179C59.5904 56.843 61.5987 55.0347 64.5737 55.0347C67.2486 55.0347 68.8153 56.568 68.8153 59.7513V69.4428H72.9902V59.218C72.9985 53.8347 69.8236 51.3931 65.5403 51.3931Z"
                  fill="#FF2828"/>
            <path d="M83.5233 66.2345C81.9151 66.2345 81.0484 65.3012 81.0484 63.5595V55.068H85.8316V51.7264H81.0484V47.4432H76.8735V51.7264H73.9319V55.068H76.8735V63.6595C76.8735 67.6011 79.1151 69.6761 83.0234 69.6761C84.5316 69.6761 86.0316 69.2761 87.0315 68.4761L85.8649 65.5012C85.2316 66.0012 84.3983 66.2345 83.5233 66.2345Z"
                  fill="#FF2828"/>
            <path d="M92.4481 54.2014V51.5931H88.4731V69.4428H92.6481V60.7846C92.6481 57.143 94.6564 55.2681 97.8313 55.2681C98.1313 55.2681 98.4313 55.3014 98.7979 55.368V51.3931C95.823 51.3931 93.6564 52.3264 92.4481 54.2014Z"
                  fill="#FF2828"/>
            <path d="M108.264 51.3931C102.948 51.3931 99.0396 55.2014 99.0396 60.5179C99.0396 65.8345 102.914 69.6761 108.898 69.6761C111.973 69.6761 114.481 68.6761 116.081 66.7678L113.839 64.1929C112.573 65.4928 110.998 66.1345 108.989 66.1345C105.881 66.1345 103.706 64.4595 103.206 61.8596H117.214C117.248 61.4596 117.281 60.9596 117.281 60.6263C117.281 55.0347 113.473 51.3931 108.264 51.3931ZM103.181 59.0846C103.581 56.4764 105.556 54.7431 108.264 54.7431C111.006 54.7431 112.981 56.518 113.314 59.0846H103.181Z"
                  fill="#FF2828"/>
            <path d="M129.189 51.3931C126.747 51.3931 124.672 52.2264 123.273 53.9347V51.5931H119.298V75.926H123.473V67.2678C124.906 68.9094 126.914 69.6761 129.189 69.6761C134.406 69.6761 138.247 66.0678 138.247 60.5179C138.247 55.0014 134.397 51.3931 129.189 51.3931ZM128.714 66.1012C125.706 66.1012 123.398 63.9262 123.398 60.5179C123.398 57.1097 125.706 54.9347 128.714 54.9347C131.722 54.9347 133.997 57.1097 133.997 60.5179C133.997 63.9262 131.722 66.1012 128.714 66.1012Z"
                  fill="#FF2828"/>
            <path d="M142.322 43.8433C140.789 43.8433 139.647 44.9433 139.647 46.3516C139.647 47.7515 140.781 48.8598 142.322 48.8598C143.889 48.8598 144.997 47.7265 144.997 46.2516C144.997 44.8766 143.864 43.8433 142.322 43.8433Z"
                  fill="#FF2828"/>
            <path d="M144.389 51.5931H140.214V69.4428H144.389V51.5931Z" fill="#FF2828"/>
            <path d="M161.172 44.6433V53.8014C159.772 52.1598 157.73 51.3931 155.422 51.3931C150.239 51.3931 146.397 54.9681 146.397 60.5179C146.397 66.0678 150.239 69.6761 155.422 69.6761C157.863 69.6761 159.93 68.8428 161.338 67.1345V69.4428H165.347V44.6433H161.172ZM155.93 66.1012C152.922 66.1012 150.614 63.9262 150.614 60.5179C150.614 57.1097 152.922 54.9347 155.93 54.9347C158.938 54.9347 161.247 57.1097 161.247 60.5179C161.238 63.9262 158.93 66.1012 155.93 66.1012Z"
                  fill="#FF2828"/>
            <path d="M34.1827 45.3099C34.4161 46.8015 34.5827 48.2599 34.7161 49.5515C34.7244 49.6015 34.7411 49.6515 34.7661 49.7015C36.1077 52.1931 36.8243 54.9931 36.8243 57.9013C36.8243 59.243 36.6743 60.5679 36.3744 61.8429C35.9827 61.1596 35.4827 60.5513 34.8827 60.0429V58.6763C34.8827 58.243 34.5327 57.893 34.0994 57.893H33.4494C33.3411 57.893 33.2577 57.8097 33.2577 57.7013V56.2764H33.7161C33.9327 56.2764 34.1077 56.1014 34.1077 55.8847V54.5181C34.1077 54.3014 33.9327 54.1264 33.7161 54.1264H33.2494C33.1578 51.1848 32.4994 43.3266 30.6828 38.61C30.6328 38.4767 30.4495 38.4767 30.3995 38.61C28.5828 43.3266 27.9245 51.1848 27.8412 54.1347H27.3745C27.1579 54.1347 26.9829 54.3097 26.9829 54.5264V55.893C26.9829 56.1097 27.1579 56.2847 27.3745 56.2847H27.8329V57.7097C27.8329 57.818 27.7495 57.9013 27.6412 57.9013H26.9912C26.5579 57.9013 26.2079 58.2513 26.2079 58.6846V60.0513C24.7579 61.2846 23.8413 63.1096 23.8413 65.1595V67.3011H23.133C22.9163 67.3011 22.7413 67.4761 22.7413 67.6928V69.2511C22.7413 69.3594 22.658 69.4428 22.5496 69.4428H20.7747C20.6663 69.4428 20.583 69.3594 20.583 69.2511V60.9763C21.783 60.5513 22.6663 59.443 22.7496 58.1097C22.758 58.0013 22.6663 57.9097 22.558 57.9097H20.783C20.6747 57.9097 20.5913 57.8263 20.5913 57.718C20.5913 54.7597 20.5663 48.8348 19.6497 46.0349C19.608 45.8932 19.408 45.8932 19.358 46.0349C18.4414 48.8348 18.4164 54.7597 18.4164 57.718C18.4164 57.8263 18.333 57.9097 18.2247 57.9097H16.4498C16.3414 57.9097 16.2498 58.0013 16.2581 58.1097C16.3414 59.443 17.2164 60.5513 18.4247 60.9763V69.2511C18.4247 69.3594 18.3414 69.4428 18.2331 69.4428H16.4581C16.3498 69.4428 16.2664 69.3594 16.2664 69.2511V67.6928C16.2664 67.4761 16.0914 67.3011 15.8748 67.3011H15.1664V65.3178C15.1664 65.2095 15.1498 65.1095 15.1081 65.0095C13.8581 62.0929 10.9582 60.0429 7.58323 60.0429C5.7166 60.0429 3.99164 60.6679 2.61666 61.7263C2.3 60.3179 2.15834 58.868 2.20001 57.3847C2.325 53.1264 4.02497 49.0432 6.96658 45.9599C10.3249 42.435 14.8915 40.5183 19.7497 40.5767C22.3496 40.61 24.8996 41.235 27.1995 42.3766C27.3162 42.435 27.4579 42.3683 27.4829 42.2433C27.6079 41.635 27.7495 41.0433 27.8995 40.46C27.9245 40.3767 27.8829 40.285 27.7995 40.2517C25.2662 39.0767 22.4663 38.4101 19.508 38.4101C8.76657 38.4017 -0.0249463 47.2099 5.31848e-05 57.9597C0.0333858 68.9094 9.09157 77.7343 20.133 77.3843C30.4661 77.0509 38.8076 68.5844 38.9826 58.243C39.066 53.2764 37.2993 48.7348 34.3161 45.2432C34.2661 45.1849 34.1661 45.2349 34.1827 45.3099Z"
                  fill="#FF2828"/>
        </g>
    </g>
    <defs>
        <filter id="filter0_b_1_1029" x="-4" y="-3.09" width="173.83" height="88" filterUnits="userSpaceOnUse"
                color-interpolation-filters="sRGB">
            <feFlood flood-opacity="0" result="BackgroundImageFix"/>
            <feGaussianBlur in="BackgroundImageFix" stdDeviation="2"/>
            <feComposite in2="SourceAlpha" operator="in" result="effect1_backgroundBlur_1_1029"/>
            <feBlend mode="normal" in="SourceGraphic" in2="effect1_backgroundBlur_1_1029" result="shape"/>
        </filter>
        <clipPath id="clip0_1_1029">
            <rect width="165.83" height="80" fill="white" transform="translate(0 0.91)"/>
        </clipPath>
        <clipPath id="clip1_1_1029">
            <rect width="165.83" height="79.9984" fill="white" transform="translate(0 0.910804)"/>
        </clipPath>
    </defs>
</svg>
